<?xml version="1.0" encoding="UTF-8" standalone="no"?>
<!-- Created with Inkscape (http://www.inkscape.org/) -->

<svg
   xmlns:a="http://ns.adobe.com/AdobeSVGViewerExtensions/3.0/"
   xmlns:dc="http://purl.org/dc/elements/1.1/"
   xmlns:cc="http://creativecommons.org/ns#"
   xmlns:rdf="http://www.w3.org/1999/02/22-rdf-syntax-ns#"
   xmlns:svg="http://www.w3.org/2000/svg"
   xmlns="http://www.w3.org/2000/svg"
   xmlns:xlink="http://www.w3.org/1999/xlink"
   xmlns:sodipodi="http://sodipodi.sourceforge.net/DTD/sodipodi-0.dtd"
   xmlns:inkscape="http://www.inkscape.org/namespaces/inkscape"
   id="svg2"
   version="1.1"
   inkscape:version="0.91 r13725"
   xml:space="preserve"
   width="682.46625"
   height="688.09003"
   viewBox="0 0 682.46625 688.09003"
   sodipodi:docname="icon.svg"
   inkscape:export-filename="/Users/ian/svn/gate-top/externals/gate-extras/comrades/german/applications/metadata-twitter/icon.png"
   inkscape:export-xdpi="8.3709974"
   inkscape:export-ydpi="8.3709974"><metadata
     id="metadata8"><rdf:RDF><cc:Work
         rdf:about=""><dc:format>image/svg+xml</dc:format><dc:type
           rdf:resource="http://purl.org/dc/dcmitype/StillImage" /><dc:title></dc:title></cc:Work></rdf:RDF></metadata><defs
     id="defs6"><clipPath
       clipPathUnits="userSpaceOnUse"
       id="clipPath20"><path
         d="m 0,550.472 545.973,0 L 545.973,0 0,0 0,550.472 Z"
         id="path22"
         inkscape:connector-curvature="0" /></clipPath><linearGradient
       id="linearGradient3206"><stop
         id="stop3208"
         offset="0"
         style="stop-color:#000000;stop-opacity:1;" /><stop
         style="stop-color:#000000;stop-opacity:1;"
         offset="0.19270271"
         id="stop3214" /><stop
         id="stop3216"
         offset="0.30887511"
         style="stop-color:#dd0000;stop-opacity:1;" /><stop
         style="stop-color:#dd0000;stop-opacity:1;"
         offset="0.73000002"
         id="stop3218" /><stop
         id="stop3220"
         offset="0.86000001"
         style="stop-color:#ffce00;stop-opacity:1;" /><stop
         id="stop3210"
         offset="1"
         style="stop-color:#ffce00;stop-opacity:1;" /></linearGradient><linearGradient
       gradientTransform="matrix(1.567692,0,0,1.567692,-129.3706,-94.56783)"
       x1="87.396973"
       y1="141.97266"
       x2="240.94727"
       y2="141.97266"
       id="XMLID_22_"
       gradientUnits="userSpaceOnUse"><stop
         style="stop-color:white;stop-opacity:0.66666675;"
         offset="0"
         id="stop139" /><stop
         style="stop-color:#d7d7d7;stop-opacity:0.21875;"
         offset="0.24074516"
         id="stop143" /><stop
         style="stop-color:#4d4d4d;stop-opacity:0;"
         offset="0.4585622"
         id="stop145" /><stop
         id="stop3696"
         offset="0.71891773"
         style="stop-color:white;stop-opacity:0.51041669;" /><stop
         id="stop2807"
         offset="0.87351298"
         style="stop-color:#f2f2f2;stop-opacity:0.40000001;" /><stop
         style="stop-color:white;stop-opacity:0.62352943;"
         offset="1"
         id="stop3694" /><a:midPointStop
         style="stop-color:#E9E9EF"
         offset="0" /><a:midPointStop
         style="stop-color:#E9E9EF"
         offset="0.5" /><a:midPointStop
         style="stop-color:#B1B1C5"
         offset="0.157303" /><a:midPointStop
         style="stop-color:#B1B1C5"
         offset="0.5" /><a:midPointStop
         style="stop-color:#CECEDB"
         offset="0.314607" /><a:midPointStop
         style="stop-color:#CECEDB"
         offset="0.5" /><a:midPointStop
         style="stop-color:#FFFFFF"
         offset="0.65" /><a:midPointStop
         style="stop-color:#FFFFFF"
         offset="0.5" /><a:midPointStop
         style="stop-color:#CECEDB"
         offset="0.837079" /><a:midPointStop
         style="stop-color:#CECEDB"
         offset="0.5" /><a:midPointStop
         style="stop-color:#FFFF66"
         offset="1" /></linearGradient><linearGradient
       gradientTransform="matrix(1.567692,0,0,1.567692,-129.3714,-94.56962)"
       gradientUnits="userSpaceOnUse"
       xlink:href="#XMLID_22_"
       id="linearGradient1945"
       y2="141.97276"
       x2="269.33331"
       y1="141.97266"
       x1="87.396973" /><clipPath
       id="clip"><circle
         id="circle4744"
         r="46"
         cy="-39" /></clipPath><linearGradient
       gradientUnits="userSpaceOnUse"
       id="XMLID_24_"
       y2="135.51855"
       x2="240.94727"
       y1="135.51855"
       x1="189.81445"
       gradientTransform="matrix(1.567692,0,0,1.567692,-129.3706,-94.56783)"
       xlink:href="#XMLID_23_"
       spreadMethod="pad"><stop
         id="stop163"
         offset="0"
         style="stop-color:#6fcf00;stop-opacity:1" /><stop
         id="stop165"
         offset="0.55618012"
         style="stop-color:#2ca900;stop-opacity:1" /><stop
         id="stop167"
         offset="1"
         style="stop-color:#33cc33;stop-opacity:1" /><a:midPointStop
         offset="0"
         style="stop-color:#6FCF00" /><a:midPointStop
         offset="0.5"
         style="stop-color:#6FCF00" /><a:midPointStop
         offset="0.5561801"
         style="stop-color:#2CA900" /><a:midPointStop
         offset="0.5"
         style="stop-color:#2CA900" /><a:midPointStop
         offset="1"
         style="stop-color:#33CC33" /></linearGradient><linearGradient
       gradientUnits="userSpaceOnUse"
       id="XMLID_23_"
       y2="148.42578"
       x2="138.53125"
       y1="148.42578"
       x1="87.396973"
       gradientTransform="matrix(1.567692,0,0,1.567692,-129.3706,-94.56783)"><stop
         id="stop154"
         offset="0"
         style="stop-color:#ff6666;stop-opacity:1" /><stop
         id="stop156"
         offset="0.46629199"
         style="stop-color:#cf0000;stop-opacity:1" /><stop
         id="stop158"
         offset="1"
         style="stop-color:#ff0000;stop-opacity:1" /><a:midPointStop
         offset="0"
         style="stop-color:#FF6666" /><a:midPointStop
         offset="0.5"
         style="stop-color:#FF6666" /><a:midPointStop
         offset="0.466292"
         style="stop-color:#CF0000" /><a:midPointStop
         offset="0.5"
         style="stop-color:#CF0000" /><a:midPointStop
         offset="1"
         style="stop-color:#FF0000" /></linearGradient><linearGradient
       gradientUnits="userSpaceOnUse"
       id="linearGradient3087"
       y2="141.97266"
       x2="240.94727"
       y1="141.97266"
       x1="87.396973"
       gradientTransform="matrix(1.567692,0,0,1.567692,-129.3706,-94.56783)"><stop
         id="stop3089"
         offset="0"
         style="stop-color:black;stop-opacity:0.11764706;" /><stop
         id="stop141"
         offset="0.15730301"
         style="stop-color:black;stop-opacity:0.34901962;" /><stop
         id="stop3092"
         offset="0.31460699"
         style="stop-color:black;stop-opacity:0.23529412;" /><stop
         id="stop3094"
         offset="0.64999998"
         style="stop-color:black;stop-opacity:0.50515461;" /><stop
         id="stop147"
         offset="1"
         style="stop-color:black;stop-opacity:0;" /><a:midPointStop
         offset="0"
         style="stop-color:#E9E9EF" /><a:midPointStop
         offset="0.5"
         style="stop-color:#E9E9EF" /><a:midPointStop
         offset="0.157303"
         style="stop-color:#B1B1C5" /><a:midPointStop
         offset="0.5"
         style="stop-color:#B1B1C5" /><a:midPointStop
         offset="0.314607"
         style="stop-color:#CECEDB" /><a:midPointStop
         offset="0.5"
         style="stop-color:#CECEDB" /><a:midPointStop
         offset="0.65"
         style="stop-color:#FFFFFF" /><a:midPointStop
         offset="0.5"
         style="stop-color:#FFFFFF" /><a:midPointStop
         offset="0.837079"
         style="stop-color:#CECEDB" /><a:midPointStop
         offset="0.5"
         style="stop-color:#CECEDB" /><a:midPointStop
         offset="1"
         style="stop-color:#FFFF66" /></linearGradient><linearGradient
       gradientUnits="userSpaceOnUse"
       id="XMLID_21_"
       y2="141.95996"
       x2="269.1944"
       y1="141.95996"
       x1="89.159668"
       gradientTransform="matrix(-1.567692,0,0,-1.567692,385.3705,350.53)"><stop
         id="stop84"
         offset="0"
         style="stop-color:#ed2939;stop-opacity:1;" /><stop
         style="stop-color:#ed2939;stop-opacity:1;"
         offset="0.19"
         id="stop2808" /><stop
         id="stop114"
         offset="0.30000001"
         style="stop-color:#ffffff;stop-opacity:1;" /><stop
         style="stop-color:#ffffff;stop-opacity:1;"
         offset="0.5"
         id="stop2810" /><stop
         id="stop2798"
         offset="0.625"
         style="stop-color:#002395;stop-opacity:1;" /><stop
         id="stop134"
         offset="1"
         style="stop-color:#002395;stop-opacity:1;" /><a:midPointStop
         offset="0"
         style="stop-color:#7C0000" /><a:midPointStop
         offset="0.641026"
         style="stop-color:#7C0000" /><a:midPointStop
         offset="0.224719"
         style="stop-color:#CF0000" /><a:midPointStop
         offset="0.13"
         style="stop-color:#CF0000" /><a:midPointStop
         offset="0.5"
         style="stop-color:#FFFFFF" /><a:midPointStop
         offset="0.7297301"
         style="stop-color:#FFFFFF" /><a:midPointStop
         offset="0.58427"
         style="stop-color:#009933" /><a:midPointStop
         offset="0.5"
         style="stop-color:#009933" /><a:midPointStop
         offset="1"
         style="stop-color:#006A00" /></linearGradient><linearGradient
       gradientTransform="matrix(1.567692,0,0,1.567692,-129.3706,-94.56783)"
       x1="87.396973"
       y1="148.42578"
       x2="138.53125"
       y2="148.42578"
       id="linearGradient2788"
       gradientUnits="userSpaceOnUse"><stop
         style="stop-color:#66f;stop-opacity:1;"
         offset="0"
         id="stop2790" /><stop
         style="stop-color:#0000cf;stop-opacity:1;"
         offset="0.46629199"
         id="stop2792" /><stop
         style="stop-color:#2929ff;stop-opacity:1;"
         offset="1"
         id="stop2794" /><a:midPointStop
         style="stop-color:#FF6666"
         offset="0" /><a:midPointStop
         style="stop-color:#FF6666"
         offset="0.5" /><a:midPointStop
         style="stop-color:#CF0000"
         offset="0.466292" /><a:midPointStop
         style="stop-color:#CF0000"
         offset="0.5" /><a:midPointStop
         style="stop-color:#FF0000"
         offset="1" /></linearGradient><linearGradient
       inkscape:collect="always"
       xlink:href="#XMLID_22_"
       id="linearGradient3074-9"
       gradientUnits="userSpaceOnUse"
       gradientTransform="matrix(1.567692,0,0,1.567692,-129.3714,-94.56962)"
       x1="87.396973"
       y1="141.97266"
       x2="269.33331"
       y2="141.97276" /><linearGradient
       y2="141.97276"
       x2="269.33331"
       y1="141.97266"
       x1="87.396973"
       gradientTransform="matrix(1.567692,0,0,1.567692,-129.3714,-94.56962)"
       gradientUnits="userSpaceOnUse"
       id="linearGradient3129"
       xlink:href="#XMLID_22_"
       inkscape:collect="always" /><linearGradient
       y2="141.95996"
       x2="269.1944"
       y1="141.95996"
       x1="89.159668"
       gradientTransform="matrix(-1.567692,0,0,-1.567692,385.37053,350.53)"
       gradientUnits="userSpaceOnUse"
       id="linearGradient3315"
       xlink:href="#XMLID_21_"
       inkscape:collect="always" /></defs><sodipodi:namedview
     pagecolor="#ffffff"
     bordercolor="#666666"
     borderopacity="1"
     objecttolerance="10"
     gridtolerance="10"
     guidetolerance="10"
     inkscape:pageopacity="0"
     inkscape:pageshadow="2"
     inkscape:window-width="974"
     inkscape:window-height="604"
     id="namedview4"
     showgrid="false"
     inkscape:zoom="0.34297838"
     inkscape:cx="341.23312"
     inkscape:cy="344.04501"
     inkscape:window-x="0"
     inkscape:window-y="23"
     inkscape:window-maximized="0"
     inkscape:current-layer="g10" /><g
     id="g10"
     inkscape:groupmode="layer"
     inkscape:label="comrades-logo-A"
     transform="matrix(1.25,0,0,-1.25,0,688.09)"><g
       id="g12"
       transform="translate(419.2129,91.0742)"><path
         d="m 0,0 87.356,0 -190.508,424.703 -87.369,0 L -381.025,0 l 86.761,0 34.513,75.932 34.043,78.789 78.874,180.802 L -67.96,154.721 -37.093,80.093 0,0 Z"
         style="fill:#ee2935;fill-opacity:1;fill-rule:nonzero;stroke:none"
         id="path14"
         inkscape:connector-curvature="0" /></g><g
       id="g16"><g
         id="g18"
         clip-path="url(#clipPath20)"><g
           id="g24"
           transform="translate(37.4736,50.25)"><path
             d="m 0,0 231.934,0 m 237.015,0.006 c -14.822,0 -14.822,-16.097 -29.637,-16.097 -14.822,0 -14.822,16.097 -29.648,16.097 -14.822,0 -14.822,-16.097 -29.631,-16.097 -14.822,0 -14.822,16.097 -29.642,16.097 -14.816,0 -14.816,-16.097 -29.626,-16.097 -14.827,0 -14.827,16.097 -29.648,16.097 -14.809,0 -14.809,-16.097 -29.625,-16.097 -14.821,0 -14.821,16.097 -29.637,16.097"
             style="fill:none;stroke:#ee2935;stroke-width:1;stroke-linecap:butt;stroke-linejoin:miter;stroke-miterlimit:4;stroke-dasharray:none;stroke-opacity:1"
             id="path26"
             inkscape:connector-curvature="0" /></g></g></g><g
       id="g4758"
       transform="matrix(0.78884986,0,0,-0.78884986,314.29674,282.90844)"><g
         id="layer2-8"
         style="display:inline" /><path
         d="M 248.36055,32.472022 C 167.27229,-10.429768 86.183274,85.849332 5.0950169,40.005058 2.2811336,38.417463 1.7853684e-5,39.212792 1.7853684e-5,42.029738 c 0,57.313381 0,114.627522 0,171.940902 0,2.81082 2.281115746316,6.57849 5.094999046316,8.16455 81.9363991,46.325 163.8735731,-52.46409 245.8099731,-6.13986 2.81388,1.58682 5.095,0.79226 5.095,-2.02469 0,-57.31338 0,-114.627521 0,-171.940902 0,-2.810823 -2.28112,-6.577723 -5.095,-8.165317 -0.84814,-0.479187 -1.69629,-0.943066 -2.54444,-1.392399 z"
         style="display:inline;fill:#4d4d4d;fill-opacity:1;stroke:#ffffff;stroke-width:18.94081116;stroke-miterlimit:4;stroke-dasharray:none;stroke-opacity:1"
         id="path4809"
         inkscape:connector-curvature="0" /><g
         style="display:inline"
         inkscape:label="ombre"
         id="g2960"><path
           sodipodi:nodetypes="ccccc"
           d="m 248.35974,206.96001 c -80.24012,-42.45169 -160.480231,51.37712 -240.7195788,8.92543 0,-55.61478 0,-111.63878 0,-167.25432 C 87.981616,90.163083 169.3449,-2.0312598 248.35974,40.114878 c 0,55.614786 0,111.230352 0,166.845132 z"
           style="fill:url(#linearGradient1945)"
           id="path5924-4"
           inkscape:connector-curvature="0" /></g><path
         id="path81"
         style="fill:#616161"
         d="M 248.36054,32.474164 C 167.27228,-10.427626 86.184026,85.849941 5.094999,40.006433 2.2811141,38.41884 0,39.214167 0,42.031114 0,99.344493 0,156.65787 0,213.97202 c 0,2.81082 2.2811141,6.57543 5.094999,8.16149 81.937164,46.32347 163.873571,-52.46257 245.809961,-6.13911 2.81389,1.58607 5.095,0.79457 5.095,-2.02238 0,-57.31415 0,-114.627527 0,-171.940906 0,-2.810823 -2.28111,-6.578489 -5.095,-8.165318 -0.84813,-0.479187 -1.69629,-0.943065 -2.54442,-1.391632 z"
         inkscape:connector-curvature="0" /><path
         id="path136"
         style="fill:url(#linearGradient3315)"
         d="m 7.6394202,218.393 c 0,-1.85322 14.8915598,10.2053 37.3092398,11.05498 22.41616,2.35154 52.35541,-6.50577 82.45234,-15.42661 30.09692,-8.89941 60.34848,-17.88991 83.38849,-15.5598 23.04003,0.8535 38.86774,13.02761 40.11547,12.39916 0,-4.87608 0,-167.062531 0,-171.940141 -1.23471,0.80068 -16.90627,-11.48059 -39.79702,-12.3961 -22.89,-2.399 -52.99917,6.5693 -83.10835,15.50698 -30.10917,8.93003 -60.21682,17.857 -83.10757,15.4381 -22.89075,-0.93236 -38.5615598,-13.21057 -39.7970198,-12.40988 0,4.8776 0,167.065601 0,171.941671 1.27375,0.72261 2.54442,1.3924 2.54442,1.39164 z"
         inkscape:connector-curvature="0" /><path
         id="path151"
         style="fill:#ffffff;fill-opacity:1"
         d="m 248.36054,206.9618 c -80.24012,-42.45169 -160.480224,51.37712 -240.7195716,8.92543 0,-55.61478 0,-111.23035 0,-166.845899 C 87.880316,91.492253 168.12042,-2.335794 248.36054,40.116663 c 0,55.614786 0,111.230357 0,166.845137 z"
         inkscape:connector-curvature="0" /><path
         id="path160"
         style="fill:#002395;fill-opacity:1"
         d="m 87.803765,56.178616 c -26.721184,6.023522 -53.441617,6.999505 -80.1627966,-7.137285 0,55.615549 0,111.231119 0,166.845899 26.7211796,14.13679 53.4416126,13.16004 80.1627966,7.1373 0,-55.61632 0,-111.23112 0,-166.845914 z"
         inkscape:connector-curvature="0" /><path
         id="path169"
         style="fill:#ed2939;fill-opacity:1"
         d="m 168.20002,199.82452 c 26.71967,-6.02428 53.44085,-6.99949 80.16052,7.13728 0,-55.61478 0,-111.230351 0,-166.845137 -26.71967,-14.137552 -53.44085,-13.161571 -80.16052,-7.138817 0,55.615556 0,111.230354 0,166.846674 z"
         inkscape:connector-curvature="0" /><polyline
         transform="translate(3.3036292e-5,0)"
         style="fill:none"
         points="0,256 0,0 256,0 256,256 "
         id="_x3C_Slice_x3E_-1" /><g
         transform="translate(3.3036292e-5,0)"
         style="display:inline"
         inkscape:label="Ombre"
         id="layer4"><path
           sodipodi:nodetypes="ccccc"
           d="m 248.35974,206.96001 c -80.24012,-42.45169 -160.480231,51.37712 -240.7195788,8.92543 0,-55.61478 0,-111.63878 0,-167.25432 C 87.981616,90.163083 169.3449,-2.0312598 248.35974,40.114878 c 0,55.614786 0,111.230352 0,166.845132 z"
           style="display:inline;opacity:1;fill:url(#linearGradient3129)"
           id="path3127"
           inkscape:connector-curvature="0" /></g></g></g></svg>